<svg width="496" height="90" viewBox="0 0 496 90" xmlns="http://www.w3.org/2000/svg"><g fill="none" fill-rule="evenodd"><g><g fill="#41C0BA"><path d="M37.12 89.204c.75 0 1.49-.205 2.207-.613 2.528-1.442 32.49-19.2 32.49-19.2C73.016 68.68 74 66.955 74 65.564V52.947c0-1.395-.985-1.964-2.186-1.254l-47.862 28.02c-1.198.71-1.198 1.85.016 2.552l8.697 5.016c1.202.702 2.62 1.56 3.15 1.924h1.306z"/><path d="M50.084 57.317c1.205-.694 1.213-1.843.008-2.544L2.234 26.745C1.036 26.043.052 26.605.052 28v12.62c0 1.395.976 3.113 2.182 3.822L34.717 63.64c1.198.71 3.17.725 4.37.024l10.997-6.347z"/><path d="M29.16 69.532c1.213-.702 1.213-1.843.015-2.545L2.232 51.173c-1.197-.7-2.18-.133-2.18 1.262v12.617c0 1.39.975 3.117 2.172 3.834L13.8 75.838c1.198.718 3.162.734 4.37.04l10.99-6.346z"/><path d="M1.288.835C.974.835.05.835.05 3.04v11.484c0 2.166.82 3.375 2.073 4.133 3.427 2.05 10.048 6.024 11.65 6.992 2.196 1.314 4.587-.053 4.587-.053l10.903-6.295s2.194-1.15-.16-2.536c-2.356-1.38-26.17-15.354-26.17-15.354C2.9 1.396 2.05.835 1.288.835"/><path d="M74 5.088c0-3.315-1.527-3.315-2.03-3.315-1.29 0-2.735.936-2.75.952l-45.456 26.62s-2.08 1.117-.23 2.182c1.843 1.068 11.154 6.44 11.154 6.44s2.512 1.394 5.072-.118c2.242-1.323 26.987-15.948 32.95-19.476.828-.488 1.29-1.19 1.29-2.315V5.087z"/><path d="M74 26.895c0-1.396-.983-1.96-2.188-1.254L44.877 41.448c-1.202.7-1.198 1.85.008 2.544L55.88 50.34c1.206.693 3.166.677 4.363-.037l11.585-6.954C73.025 42.628 74 40.906 74 39.52V26.894z"/></g><g fill="#F9F7F1"><path d="M196.478 28.997c.125-.314.11-.613-.04-.826-.15-.213-.416-.33-.762-.33h-25.508c-.347 0-.617.117-.766.33-.14.214-.157.505-.04.827l1.528 4c.278.726 1.173 1.347 1.956 1.347h4.62c1.05 0 1.908.85 1.908 1.907v24.42c0 .75.604 1.355 1.354 1.355h4.387c.746 0 1.355-.605 1.355-1.355V36.25c0-1.055.85-1.906 1.895-1.906h4.666c.787 0 1.678-.62 1.952-1.347l1.496-4z"/><path d="M149.96 51.93c0-6.113-4.134-8.42-10.816-10.153-6.048-1.548-7.693-2.33-7.693-4.834v-.1c0-2 1.868-3.296 4.743-3.296 1.29 0 2.66.254 4.064.75.266.093 1.198.396 2.355.396 1.076 0 2-.263 2.726-.783l1.47-1.052c.49-.355.755-.86.73-1.387-.02-.576-.366-1.104-.942-1.443-3.05-1.778-6.52-2.685-10.31-2.685-7.1 0-11.883 4.105-11.883 10.2v.102c0 6.93 4.685 8.66 11.302 10.347 5.653 1.452 7.205 2.46 7.205 4.69v.093c0 2.19-2.024 3.544-5.286 3.544-2.266 0-4.4-.512-6.512-1.585-.718-.366-1.43-.548-2.15-.548-1.265 0-2.088.597-2.096.605-.012.007-1.092.74-2.375 1.596-.386.262-.583.552-.59.867-.01.42.305.842.603 1.064 3.698 2.71 8.303 4.206 12.972 4.206 7.7 0 12.484-4.024 12.484-10.492v-.1z"/><path d="M245.29 56.93c.116-.314.1-.612-.05-.826-.148-.213-.415-.33-.753-.33h-15.593c-1.048 0-1.907-.85-1.907-1.9v-4.04c0-1.048.86-1.895 1.907-1.895h10.56c.78 0 1.67-.618 1.944-1.356l1.41-3.782c.118-.322.11-.613-.04-.827-.148-.213-.422-.33-.76-.33H228.68c-1.048 0-1.898-.85-1.898-1.907v-3.746c0-1.05.85-1.9 1.9-1.9h13.543c.79 0 1.677-.62 1.955-1.354l1.4-3.742c.12-.315.112-.605-.037-.827-.153-.214-.42-.33-.766-.33H218.22c-.188 0-.43.047-.57.253-.138.2-.122.52.027.86l1.576 3.52c.38.85.694 2.297.694 3.224v24.976c0 .746.605 1.354 1.355 1.354h20.632c.78 0 1.67-.624 1.944-1.346l1.41-3.75z"/><path d="M296.84 28.398c-.297-.576-.724-.576-1.03 0l-6.473 12.35c-.246.48-.6.74-.99.74-.397 0-.75-.26-1-.74L280.87 28.4c-.298-.576-.726-.576-1.024 0l-17.468 33.33c-.15.29-.173.557-.064.746.12.19.37.3.7.3h5.215c.797 0 1.78-.598 2.148-1.308l8.98-17.137c.262-.48.605-.738 1-.738s.742.258 1 .737l2.23 4.26c.463.885.463 2.26 0 3.143l-5.23 9.995c-.157.29-.182.557-.073.746.12.19.363.3.702.3h5.213c.795 0 1.783-.598 2.15-1.308l.996-1.9c.25-.48.604-.737 1-.737.39 0 .745.257.99.737l1 1.9c.372.71 1.356 1.306 2.15 1.306h5.214c.34 0 .58-.11.702-.3.11-.188.084-.454-.073-.745l-5.23-10.004c-.464-.874-.464-2.25 0-3.133l2.23-4.26c.25-.48.604-.738.99-.738.404 0 .76.258 1.01.737l8.98 17.136c.362.71 1.346 1.307 2.14 1.307h5.222c.338 0 .58-.11.693-.3.117-.188.093-.454-.064-.745l-17.46-33.33z"/><path d="M347.362 55.757v.01l-.275.007h-7.725c-.633 0-1.145-.19-1.512-.57-.6-.596-.593-1.463-.593-1.503v-3.77c.056-.94.62-1.93 2.032-1.963h7.797c2.142 0 3.887 1.758 3.887 3.916 0 2.048-1.596 3.733-3.612 3.874zm-10.254-19.6c0-.04-.008-.89.593-1.496.367-.37.88-.56 1.513-.56.15 0 .258-.007.33-.007h.012l7.847.024c1.952.14 3.504 1.778 3.504 3.77 0 2.09-1.694 3.782-3.782 3.782l-7.536-.025c-.008 0-.077-.016-.375-.016-.633 0-1.146-.19-1.512-.562-.6-.605-.592-1.463-.592-1.496v-3.415zm17.443 8.85l-.164-.18.165-.182c1.695-1.86 2.634-4.266 2.634-6.758 0-5.472-4.395-9.935-9.838-10.056l-.222.01h-18.67c-.402 0-.49.156-.527.204-.238.412.165 1.355.33 1.654l1.63 3.645s.314.584.314 1.89v24.928c0 1.73.985 1.867 1.29 1.867h.057l15.815.017c5.47-.154 9.89-4.65 9.89-10.16 0-2.546-.96-4.985-2.7-6.876z"/><path d="M403.623 45.03c0 6.324-4.593 11.09-10.685 11.09-6.05 0-10.79-4.916-10.79-11.182v-.104c0-6.315 4.596-11.09 10.685-11.09 6.048 0 10.79 4.916 10.79 11.194v.093zm7.45-.196c0-10.024-7.797-17.585-18.135-17.585-10.226 0-18.242 7.765-18.242 17.688v.093c0 10.033 7.798 17.593 18.137 17.593 10.23 0 18.24-7.77 18.24-17.685v-.104z"/><path d="M455.782 56.686c.157-.298.173-.568.056-.762-.12-.19-.37-.302-.71-.302h-14.056c-1.048 0-1.9-.85-1.9-1.895V29.203c0-.75-.612-1.363-1.362-1.363h-7.286c-.198 0-.347.07-.44.21-.15.214-.15.57-.008.948l1.404 3.74c.33.864.596 2.332.596 3.25V60.67c0 .75.605 1.355 1.355 1.355h18.22c.785 0 1.76-.597 2.115-1.306l2.017-4.034z"/><path d="M495.182 28.997c.117-.314.1-.605-.04-.826-.15-.213-.424-.33-.762-.33h-25.516c-.34 0-.61.117-.758.33-.15.214-.157.505-.04.827l1.52 4c.278.726 1.173 1.347 1.963 1.347h4.62c1.05 0 1.907.85 1.907 1.907v24.42c0 .75.605 1.355 1.355 1.355h4.38c.745 0 1.362-.605 1.362-1.355V36.25c0-1.055.85-1.906 1.895-1.906h4.664c.78 0 1.67-.62 1.944-1.347l1.504-4z"/></g></g></g></svg>
